<?xml version="1.0" encoding="UTF-8" standalone="no"?>
<!DOCTYPE svg PUBLIC "-//W3C//DTD SVG 1.1//EN" "http://www.w3.org/Graphics/SVG/1.1/DTD/svg11.dtd">
<!-- Created with Vectornator (http://vectornator.io/) -->
<svg height="100%" stroke-miterlimit="10" style="fill-rule:nonzero;clip-rule:evenodd;stroke-linecap:round;stroke-linejoin:round;" version="1.1" viewBox="0 0 300 323" width="100%" xml:space="preserve" xmlns="http://www.w3.org/2000/svg" xmlns:vectornator="http://vectornator.io" xmlns:xlink="http://www.w3.org/1999/xlink">
<defs/>
<g id="Untitled" vectornator:layerName="Untitled">
<path d="M80.625 12.125C79.3696 12.008 78.1015 12.0461 76.9062 12.25C75.3125 12.5219 73.8375 13.1 72.6875 14C68.4875 17.3 65.0062 35.2125 62.9062 63.3125C62.3062 72.0125 62.1062 80.8125 62.4062 82.8125C62.8063 84.8125 63.4062 115.5 63.9062 151C64.7063 204 65.2062 219.212 66.9062 236.312C69.1063 258.113 71.5938 275.787 73.0938 279.688C74.3938 283.188 81.2938 286 88.5938 286C96.8938 286 97.3937 285.188 96.5938 274.688C96.2938 270.188 95.7063 260.4 95.4062 253C94.8062 240 94.8937 239.4 97.0938 236C101.194 230 106.1 228.4 135 223.5C149.6 221 162.313 219 163.312 219C167.313 219 171.5 225.2 176.5 238C182.5 253.6 189.9 268.387 194.5 273.688C199.1 279.088 206.994 284.9 210.594 285.5C214.194 286.2 223.512 281.094 224.312 278.094C224.613 276.694 223.112 273.212 219.812 267.812C209.86 251.616 202.295 233.303 201.375 223.938C201.24 223.643 201.163 223.316 201.062 223C200.204 221.424 199.495 219.81 198.906 218.156C198.617 217.748 198.35 217.404 197.938 216.688C197.774 216.404 197.813 216.089 197.812 215.781C196.507 214.496 195.655 211.437 194.906 204.906C193.006 188.906 195.5 154.306 200 133.906C202.7 121.306 210.788 100.5 222.188 76.5C227.688 64.9 233.994 51.1125 236.094 45.8125C241.994 31.2125 242.306 21.0875 236.906 17.6875C233.906 15.7875 228.906 19.0063 218.906 28.9062C207.906 39.9063 200.006 51.5063 196.906 60.9062C192.406 74.4063 188.787 78.8 179.688 81.5C176.787 82.4 162.1 84.8937 147 87.0938C116.7 91.4938 105.7 91.8999 102 88.5C98.4 85.2 95.7999 71.7 93.5 43.5C91.8 23.3 91.5061 21.0063 89.4062 16.9062C88.0562 14.2062 84.3911 12.4761 80.625 12.125ZM168.312 112.188C172.125 112.062 175.2 112.456 176.5 113.406C178.4 114.706 178.288 115.094 175.188 125.094C171.387 137.594 170.6 141.8 168 162.5C165.7 181.1 163.788 188.3 160.688 190.5C157.187 193 141.388 197.7 130.188 199.5C117.787 201.6 104.487 201.187 100.688 198.688C96.7875 196.187 96.1063 191.8 94.9062 166C93.7062 139.6 94.1874 131.3 97.1875 127.5C101.888 121.6 112.488 118.506 134.188 116.906C142.288 116.406 151.988 115.094 155.688 114.094C159.938 112.944 164.5 112.313 168.312 112.188Z" fill="#000000" fill-rule="nonzero" opacity="1" stroke="none"/>
</g>
</svg>
